
<svg width="91px" height="29px" viewBox="0 0 91 29" version="1.1" xmlns="http://www.w3.org/2000/svg" xmlns:xlink="http://www.w3.org/1999/xlink">
   
    <defs>
        <linearGradient x1="50%" y1="0%" x2="50%" y2="100%" id="linearGradient-1">
            <stop stop-color="#FFFFFF" offset="0%"></stop>
            <stop stop-color="#000000" offset="100%"></stop>
        </linearGradient>
        <polygon id="path-2" points="11.7503216 11.88385 17.4178655 24.3364815 11.7503216 24.3364815"></polygon>
    </defs>
    <g id="Symbols" stroke="none" stroke-width="1" fill="none" fill-rule="evenodd">
        <g id="Logo-Dark">
            <path d="M17.4199415,24.2973698 L11.7523977,12.3236856 L6.04494152,24.2973698 L0.257660819,24.2973698 L11.7523977,0.350001363 L23.2471345,24.2973698 L17.4199415,24.2973698 Z" id="Logo-Letter-A" fill="#333333"></path>
            <path d="M30.1994208,24.3277916 L30.1994208,20.7356863 C32.5864071,20.7356863 34.5214419,18.805798 34.5214419,16.42516 C34.5214419,14.0445221 32.5864071,12.1146337 30.1994208,12.1146337 C27.8124345,12.1146337 25.8773998,14.0445221 25.8773998,16.42516 L22.2757156,16.42516 C22.2757156,12.0606571 25.8232792,8.52252845 30.1994208,8.52252845 C34.5755624,8.52252845 38.1231261,12.0606571 38.1231261,16.42516 C38.1231261,20.7896629 34.5755624,24.3277916 30.1994208,24.3277916 Z" id="Logo-Letter-C" fill="#333333" fill-rule="nonzero" transform="translate(30.199421, 16.425160) rotate(-135.000000) translate(-30.199421, -16.425160) "></path>
            <path d="M43.6001226,24.3277916 L43.6001226,20.7356863 C45.9871089,20.7356863 47.9221436,18.805798 47.9221436,16.42516 C47.9221436,14.0445221 45.9871089,12.1146337 43.6001226,12.1146337 C41.2131363,12.1146337 39.2781015,14.0445221 39.2781015,16.42516 L35.6764173,16.42516 C35.6764173,12.0606571 39.223981,8.52252845 43.6001226,8.52252845 C47.9762642,8.52252845 51.5238278,12.0606571 51.5238278,16.42516 C51.5238278,20.7896629 47.9762642,24.3277916 43.6001226,24.3277916 Z" id="Logo-Letter-C" fill="#333333" fill-rule="nonzero" transform="translate(43.600123, 16.425160) rotate(-135.000000) translate(-43.600123, -16.425160) "></path>
            <path d="M52.6788033,16.42516 L49.0771191,16.42516 C49.0771191,12.0606571 52.6246827,8.52252845 57.0008243,8.52252845 C61.3769659,8.52252845 64.9245296,12.0606571 64.9245296,16.42516 C64.9245296,20.7896629 61.3769659,24.3277916 57.0008243,24.3277916 C55.3102927,24.3277916 55.1952584,24.0024149 55.1957799,23.8397266 C55.1967158,23.5477866 55.1981196,23.1098766 55.1999914,22.5259966 C55.2114102,18.9640517 55.2147519,15.622342 55.210018,12.5009068 C53.7167534,13.1798189 52.6788033,14.6815987 52.6788033,16.42516 Z M58.8077388,20.3420497 C60.2923544,19.6596861 61.3228454,18.162445 61.3228454,16.42516 C61.3228454,14.6894285 60.2941965,13.1933118 58.8117202,12.5101028 C58.8154501,14.9832025 58.8141227,17.5938449 58.8077388,20.3420497 Z" id="Logo-Letter-E" fill="#333333" fill-rule="nonzero" transform="translate(57.000824, 16.425160) rotate(-135.000000) translate(-57.000824, -16.425160) "></path>
            <path d="M67.9249899,23.0363375 L67.9249899,28.8591791 L64.3233057,28.8591791 L64.3233057,16.4065475 L64.3383126,16.4065475 C64.3464059,12.0489198 67.8908625,8.51887004 72.262005,8.51887004 C76.6381466,8.51887004 80.1857103,12.0569987 80.1857103,16.4215016 C80.1857103,20.7860045 76.6381466,24.3241332 72.262005,24.3241332 C70.6610667,24.3241332 69.1710204,23.8506113 67.9249899,23.0363375 Z M72.262005,20.7320279 C74.6489913,20.7320279 76.5840261,18.8021396 76.5840261,16.4215016 C76.5840261,14.0408637 74.6489913,12.1109753 72.262005,12.1109753 C69.8750187,12.1109753 67.939984,14.0408637 67.939984,16.4215016 C67.939984,18.8021396 69.8750187,20.7320279 72.262005,20.7320279 Z" id="Logo-Letter-P" fill="#333333" fill-rule="nonzero"></path>
            <path d="M85.2035696,5.13947505 L90.2459275,5.13947505 L90.2459275,8.97105399 L85.2035696,8.97105399 L85.2035696,15.8757044 C85.2035696,18.476868 87.3178524,20.5855277 89.9259524,20.5855277 L89.9259524,24.1776329 C85.3286971,24.1776329 81.6018854,20.4607329 81.6018854,15.8757044 L81.6018854,8.97105399 L79.7090854,8.97105399 L79.7090854,5.13947505 L81.6018854,5.13947505 L81.6018854,0.350001363 L85.2035696,0.350001363 L85.2035696,5.13947505 Z" id="Logo-Letter-T" fill="#333333" fill-rule="nonzero"></path>
            <g id="Logo-Letter-AB">
                <use fill="#FA7C28" xlink:href="#path-2"></use>
                <use fill-opacity="0.100000001" fill="url(#linearGradient-1)" xlink:href="#path-2"></use>
            </g>
            <polygon id="Logo-Letter-AA" fill="#E0610E" points="11.7544883 11.88385 11.7544883 24.3364815 6.04703216 24.3364815"></polygon>
        </g>
    </g>
</svg>