<?xml version="1.0" encoding="UTF-8" standalone="no"?>
<svg
   xmlns:dc="http://purl.org/dc/elements/1.1/"
   xmlns:cc="http://creativecommons.org/ns#"
   xmlns:rdf="http://www.w3.org/1999/02/22-rdf-syntax-ns#"
   xmlns:svg="http://www.w3.org/2000/svg"
   xmlns="http://www.w3.org/2000/svg"
   id="svg28"
   version="1.1"
   viewBox="0 0 144 28"
   height="28px"
   width="144px">
  <metadata
     id="metadata32">
    <rdf:RDF>
      <cc:Work
         rdf:about="">
        <dc:format>image/svg+xml</dc:format>
        <dc:type
           rdf:resource="http://purl.org/dc/dcmitype/StillImage" />
        <dc:title>AA60524E-2D6E-47D2-B971-BED6DF3EFE90</dc:title>
      </cc:Work>
    </rdf:RDF>
  </metadata>
  <!-- Generator: sketchtool 50.2 (55047) - http://www.bohemiancoding.com/sketch -->
  <title
     id="title2">AA60524E-2D6E-47D2-B971-BED6DF3EFE90</title>
  <desc
     id="desc4">Created with sketchtool.</desc>
  <defs
     id="defs6" />
  <path
     style="fill:#333333;fill-rule:nonzero;stroke:none;stroke-width:1"
     id="Shape"
     d="M 62.805664,17.57 H 54.75823 l -1.497345,4.225455 h -4.880708 l 7.84354,-20.80272773 h 5.377699 L 69.362124,21.795455 h -5.052743 z m -6.51823,-4.225454 h 5.052743 L 58.842478,6.16 Z" />
  <path
     style="fill:#333333;fill-rule:nonzero;stroke:none;stroke-width:1"
     id="path9"
     d="m 73.828673,14.521818 c 0,2.316364 1.55469,3.608182 3.402477,3.608182 1.390002,0.06302 2.641799,-0.834507 3.026549,-2.17 l 3.937699,1.202727 c -0.637168,2.545455 -3.052035,5.090909 -6.964248,5.090909 -4.275563,0.04042 -7.774399,-3.388471 -7.814867,-7.658636 -0.04047,-4.270165 3.392755,-7.7645828 7.668319,-7.805 4.026902,0 6.371681,2.4690909 7.008849,5.090909 l -3.995044,1.202727 c -0.306505,-1.348877 -1.53456,-2.286162 -2.91823,-2.227272 -1.854159,0 -3.351504,1.317272 -3.351504,3.665454 z" />
  <path
     style="fill:#333333;fill-rule:nonzero;stroke:none;stroke-width:1"
     id="path11"
     d="m 89.719646,14.521818 c 0,2.316364 1.561062,3.608182 3.40885,3.608182 1.389302,0.06067 2.639793,-0.835921 3.026548,-2.17 l 3.937696,1.202727 c -0.847633,3.112048 -3.737812,5.224788 -6.964244,5.090909 -4.275564,0.04042 -7.774399,-3.388471 -7.814868,-7.658636 -0.04047,-4.270165 3.392755,-7.7645828 7.668319,-7.805 4.026903,0 6.371681,2.4690909 7.00885,5.090909 l -3.995045,1.202727 c -0.333412,-1.331894 -1.564581,-2.241436 -2.937345,-2.17 -1.860531,-0.05727 -3.338761,1.26 -3.338761,3.608182 z" />
  <path
     style="fill:#333333;fill-rule:nonzero;stroke:none;stroke-width:1"
     id="path13"
     d="m 115.51858,17.601818 c -0.70725,2.545455 -3.02654,4.632727 -6.72849,4.632727 -4.0269,0 -7.60779,-2.87 -7.60779,-7.776363 0,-4.6900002 3.49168,-7.6872729 7.28283,-7.6872729 4.5239,0 7.31469,2.7872727 7.31469,7.4836369 0.006,0.461916 -0.0237,0.923611 -0.0892,1.380909 h -10.19469 c 0.1895,1.666734 1.64205,2.900255 3.31964,2.81909 1.3046,0.123671 2.52221,-0.667699 2.93735,-1.90909 z m -4.05876,-4.836363 c -0.0573,-1.113637 -0.82194,-2.462728 -2.93734,-2.462728 -1.46847,-0.07645 -2.74223,1.003207 -2.90549,2.462728 z" />
  <path
     style="fill:#333333;fill-rule:nonzero;stroke:none;stroke-width:1"
     id="path15"
     d="M 117.48743,27.401818 V 7.2163636 h 4.29452 V 8.7118182 C 122.41912,7.77 123.98018,6.86 126.07009,6.86 c 4.23079,0 6.78584,3.226364 6.78584,7.598182 0,4.371818 -2.88,7.636363 -6.96425,7.636363 -1.87965,0 -3.28779,-0.636363 -3.96318,-1.47 v 6.777273 z m 7.697,-16.545454 c -1.7331,0 -3.29416,1.170909 -3.29416,3.608182 0,2.437272 1.56106,3.639999 3.29416,3.639999 1.73309,0 3.31964,-1.202727 3.31964,-3.639999 0,-2.437273 -1.55469,-3.608182 -3.31964,-3.608182 z" />
  <path
     style="fill:#333333;fill-rule:nonzero;stroke:none;stroke-width:1"
     id="path17"
     d="m 140.52106,2.9590909 v 4.2572727 h 2.84814 v 3.9009094 h -2.84814 v 5.466363 c 0,1.209091 0.63717,1.527273 1.61841,1.527273 0.39488,-0.0073 0.78787,-0.05633 1.17239,-0.146364 v 3.71 c -0.73206,0.310511 -1.52488,0.451907 -2.31929,0.413637 -3.02655,0 -4.88071,-1.794546 -4.88071,-4.696364 v -6.249091 h -2.54867 V 7.2418182 Z" />
  <rect
     style="fill:#0bf7f7;fill-rule:nonzero;stroke:none;stroke-width:1"
     height="6.7327271"
     width="23.212036"
     y="9.6190968"
     x="-40.651245"
     transform="rotate(-135.05)"
     id="Rectangle-path" />
  <path
     id="rect20"
     d="M 23.894531 0.74804688 L 12.265625 12.396484 L 4.8613281 5.0058594 L 0.09765625 9.7773438 L 7.5019531 17.167969 L 7.4941406 17.175781 L 12.259766 21.931641 L 28.658203 5.5039062 L 23.894531 0.74804688 z "
     style="fill:#08f9cb;fill-rule:nonzero;stroke:none;stroke-width:1" />
</svg>
