<?xml version="1.0" encoding="UTF-8"?>
<svg width="100px" height="39px" viewBox="0 0 100 39" version="1.1" xmlns="http://www.w3.org/2000/svg" xmlns:xlink="http://www.w3.org/1999/xlink">
    <!-- Generator: Sketch 47.1 (45422) - http://www.bohemiancoding.com/sketch -->
    <title>logo</title>
    <desc>Created with Sketch.</desc>
    <defs>
        <linearGradient x1="107.883185%" y1="0%" x2="0%" y2="100%" id="linearGradient-1">
            <stop stop-color="#A9CFFA" offset="0%"></stop>
            <stop stop-color="#6A60D1" offset="100%"></stop>
        </linearGradient>
    </defs>
    <g id="Symbols" stroke="none" stroke-width="1" fill="none" fill-rule="evenodd">
        <g id="header/logged-in/1170" transform="translate(-35.000000, -12.000000)" fill="url(#linearGradient-1)">
            <g id="header-/-not-logged-in">
                <g id="logo" transform="translate(35.000000, 12.000000)">
                    <path d="M62.869908,0.106751175 C46.2985156,0.116809575 27.4533681,1.94300596 14.2614576,6.28567778 L14.2614576,6.28567778 C-2.29969335,11.7383538 -6.31140922,20.8262039 12.3208885,28.0956998 L12.3208885,28.0956998 C12.422278,28.1357629 12.5270814,28.1746327 12.6296658,28.2148663 L12.6296658,28.2148663 L23.7613537,13.7133804 C27.4118906,8.73719981 29.2956202,6.91884557 33.8332304,6.91884557 L33.8332304,6.91884557 L27.4286182,25.5519474 C26.9926771,26.8244203 27.0551495,27.1360602 27.5211319,27.1360602 L27.5211319,27.1360602 C28.1118883,27.1360602 30.2886918,25.1789341 32.6206521,22.476975 L32.6206521,22.476975 L32.8135312,22.2565426 L35.9477323,16.8874024 C37.3152967,14.5270879 39.3983917,13.1610208 42.0101121,13.1610208 L42.0101121,13.1610208 C44.6528979,13.1610208 46.3326535,15.3967134 44.5905963,18.377921 L44.5905963,18.377921 L44.1246139,19.1849798 L41.481828,19.1849798 L41.9488345,18.377921 C43.8760899,15.0248935 40.5800752,14.4958898 38.7144387,17.6944612 L38.7144387,17.6944612 L35.388212,23.4712223 C33.8955321,26.0795872 35.0760209,27.3220554 37.0667728,27.3220554 L37.0667728,27.3220554 C38.965011,27.3220554 41.364735,25.8213079 43.4635333,23.748425 L43.4635333,23.748425 C43.5939401,23.4021773 43.7601917,23.0504743 43.9686036,22.6939977 L43.9686036,22.6939977 L47.3581562,16.8874024 C48.7258914,14.5270879 50.8101811,13.1610208 53.4207067,13.1610208 L53.4207067,13.1610208 C56.0646874,13.1610208 57.7420533,15.3967134 56.0020443,18.377921 L56.0020443,18.377921 L55.5350378,19.1849798 L52.8922519,19.1849798 L53.3582343,18.377921 C55.2865139,15.0248935 51.991694,14.4958898 50.124692,17.6944612 L50.124692,17.6944612 L46.7986359,23.4712223 C45.3061268,26.0795872 46.4876396,27.3220554 48.4771967,27.3220554 L48.4771967,27.3220554 C50.376459,27.3220554 52.7763537,25.8213079 54.874128,23.748425 L54.874128,23.748425 C55.0045348,23.4033707 55.170445,23.0504743 55.3790276,22.6939977 L55.3790276,22.6939977 L58.7685801,16.8874024 C60.1373394,14.5270879 62.2206051,13.1610208 64.8333496,13.1610208 L64.8333496,13.1610208 C67.4749407,13.1610208 69.1536721,15.3967134 67.412639,18.377921 L67.412639,18.377921 L66.9466566,19.1849798 C64.5213291,23.377628 60.6033218,23.7818393 58.5200562,22.9113615 L58.5200562,22.9113615 L58.2090599,23.4712223 C56.7165507,26.0795872 57.8980636,27.3220554 59.8877913,27.3220554 L59.8877913,27.3220554 C62.1583034,27.3220554 65.1421269,25.1789341 67.4749407,22.476975 L67.4749407,22.476975 L67.6922284,22.2277312 L67.6922284,22.2287541 L72.7605124,13.4706149 L75.9930306,13.4706149 L75.3420208,14.5894841 C78.6370113,11.6393041 83.5178783,13.3470159 80.5028185,18.4715153 L80.5028185,18.4715153 L76.9260196,24.5888981 C76.5023682,25.3236728 76.3753752,25.5563799 76.1857391,25.8756915 L76.1857391,25.8756915 C74.7478506,28.3116997 73.6201049,29.3093566 71.9000665,29.3093566 L71.9000665,29.3093566 L71.7138443,29.3093566 C69.3175341,29.3093566 68.5170002,27.4879337 68.4647692,26.4703305 L68.4647692,26.4703305 L61.7134865,38.1953568 C71.9838751,39.0579926 80.6467098,38.8822263 84.5188016,37.0899557 L84.5188016,37.0899557 C91.1832034,34.0037315 86.7323034,30.6116638 86.0089212,27.0503081 L86.0089212,27.0503081 C84.3906138,28.3984747 82.7554082,29.3093566 81.248561,29.3093566 L81.248561,29.3093566 C78.6370113,29.3093566 77.6738104,27.1038392 79.0415455,24.7124971 L79.0415455,24.7124971 L85.5386715,13.4706149 L82.5848893,13.4706149 L83.5178783,11.9187231 L86.4404243,11.9187231 L89.4877443,6.63959709 L92.7214573,6.63959709 L89.6739666,11.9187231 L92.3479887,11.9187231 L91.4161946,13.4706149 L88.7734087,13.4706149 L81.8391468,25.5519474 C81.0923801,26.8244203 81.497085,27.3220554 82.2114206,27.3220554 L82.2114206,27.3220554 C82.9839614,27.3220554 85.154108,26.071745 86.4481053,24.214862 L86.4481053,24.214862 C89.6591166,17.7288985 99.9959035,13.0287272 100,8.33776197 L100,8.33776197 L100,8.32974935 C99.9979517,7.24105535 99.4387728,6.15236135 98.1039808,5.0421867 L98.1039808,5.0421867 C94.4578819,2.01000514 80.0090137,0.118173426 63.1556423,0.106751175 L63.1556423,0.106751175 L62.869908,0.106751175 Z M22.4151255,19.8687806 L26.4331569,19.8687806 L29.6666992,10.7076234 C27.3350803,13.0977722 24.8092167,16.5766149 22.4151255,19.8687806 L22.4151255,19.8687806 Z M61.5363108,17.6944612 L59.4530451,21.3279306 C60.6656235,21.7623171 62.7488891,21.8247133 64.3028466,19.1849798 L64.3028466,19.1849798 L64.7686583,18.377921 C65.8214712,16.5471216 65.3174251,15.5581592 64.338862,15.5583297 L64.338862,15.5583297 C63.5251851,15.5585002 62.3832722,16.242301 61.5363108,17.6944612 L61.5363108,17.6944612 Z M72.7917486,19.0291598 L69.7398199,24.3294255 C69.5670821,27.0180871 72.1096733,27.2328936 73.4036706,25.125403 L73.4036706,25.125403 L77.8276016,17.3838442 C78.2529599,16.6453189 77.8815395,15.8195072 76.9436006,15.8195072 L76.9436006,15.8195072 C76.0281927,15.8195072 74.5728938,16.6062787 72.7917486,19.0291598 L72.7917486,19.0291598 Z M21.42854,21.4215248 L15.3359482,29.2256503 C15.0462881,29.5887756 14.7808659,29.9570154 14.4466558,30.3745242 L14.4466558,30.3745242 C10.6312329,35.138285 6.49354813,35.1183387 6.49354813,35.1183387 L6.49354813,35.1183387 C6.49354813,35.1183387 12.1636834,35.2139787 14.9459226,31.8664066 L14.9459226,31.8664066 C15.6469445,31.0225239 16.2455527,30.289795 16.7526712,29.6608892 L16.7526712,29.6608892 C27.8978437,33.2633309 44.4233205,36.4763932 58.618032,37.9069024 L58.618032,37.9069024 L64.8801185,27.0891778 C63.0119217,28.4173981 60.9733767,29.3093566 58.9233955,29.3093566 L58.9233955,29.3093566 C56.4994336,29.3093566 54.9132159,28.034497 54.5921489,26.2231325 L54.5921489,26.2231325 C52.4353161,28.0155736 49.9819956,29.3093566 47.5129716,29.3093566 L47.5129716,29.3093566 C45.0878149,29.3093566 43.5027919,28.034497 43.1815543,26.2231325 L43.1815543,26.2231325 C41.0248921,28.0155736 38.5703768,29.3093566 36.1027183,29.3093566 L36.1027183,29.3093566 C33.5567134,29.3093566 31.9361871,27.9042492 31.7322131,25.948146 L31.7322131,25.948146 C29.8974714,27.8808933 28.134078,29.3093566 26.464393,29.3093566 L26.464393,29.3093566 C24.1326035,29.3093566 23.9141209,27.1038392 24.7535719,24.7124971 L24.7535719,24.7124971 L25.9058969,21.4215248 L21.42854,21.4215248 Z M15.3359482,29.2256503 C15.3366309,29.2258208 15.337143,29.2259913 15.3376551,29.2261617 L15.3376551,29.2261617 C15.337143,29.2259913 15.3364603,29.2258208 15.3359482,29.2256503 L15.3359482,29.2256503 Z M15.3378258,29.2263322 C15.3379965,29.2263322 15.3383378,29.2265027 15.3385085,29.2265027 L15.3385085,29.2265027 C15.3383378,29.2265027 15.3379965,29.2263322 15.3378258,29.2263322 L15.3378258,29.2263322 Z M15.3395327,29.2268437 C15.3397034,29.2268437 15.3397034,29.2270141 15.339874,29.2270141 L15.339874,29.2270141 C15.3397034,29.2270141 15.3397034,29.2268437 15.3395327,29.2268437 L15.3395327,29.2268437 Z M15.3400447,29.2270141 C15.3400447,29.2270141 15.3402154,29.2270141 15.3402154,29.2270141 L15.3402154,29.2270141 C15.3402154,29.2270141 15.3400447,29.2270141 15.3400447,29.2270141 L15.3400447,29.2270141 Z M15.3403861,29.2271846 C15.3403861,29.2271846 15.3405568,29.2271846 15.3405568,29.2271846 L15.3405568,29.2271846 C15.3405568,29.2271846 15.3403861,29.2271846 15.3403861,29.2271846 L15.3403861,29.2271846 Z M15.3359482,29.2256503 C15.3323637,29.2244569 15.3309982,29.224116 15.3309982,29.224116 L15.3309982,29.224116 C15.3309982,29.224116 15.3333878,29.2247979 15.3359482,29.2256503 L15.3359482,29.2256503 Z"></path>
                </g>
            </g>
        </g>
    </g>
</svg>
