<?xml version="1.0" encoding="UTF-8"?>
<svg width="144px" height="28px" viewBox="0 0 144 28" version="1.1" xmlns="http://www.w3.org/2000/svg" xmlns:xlink="http://www.w3.org/1999/xlink">
    <!-- Generator: sketchtool 50.2 (55047) - http://www.bohemiancoding.com/sketch -->
    <title>AA60524E-2D6E-47D2-B971-BED6DF3EFE90</title>
    <desc>Created with sketchtool.</desc>
    <defs></defs>
    <g id="Symbols" stroke="none" stroke-width="1" fill="none" fill-rule="evenodd">
        <g id="Header/light/desktop" transform="translate(-36.000000, -18.000000)" fill-rule="nonzero">
            <g id="Sign-up/header" transform="translate(0.000000, -1.000000)">
                <g id="Accept-logo" transform="translate(36.000000, 19.000000)">
                    <path d="M62.8056637,17.57 L54.7582301,17.57 L53.260885,21.7954545 L48.380177,21.7954545 L56.2237168,0.992727273 L61.6014159,0.992727273 L69.3621239,21.7954545 L64.3093805,21.7954545 L62.8056637,17.57 Z M56.2874336,13.3445455 L61.340177,13.3445455 L58.8424779,6.16 L56.2874336,13.3445455 Z" id="Shape" fill="#333333"></path>
                    <path d="M73.8286726,14.5218182 C73.8286726,16.8381818 75.3833628,18.13 77.2311504,18.13 C78.6211522,18.1930162 79.8729488,17.2954927 80.2576991,15.96 L84.1953982,17.1627273 C83.5582301,19.7081818 81.1433628,22.2536364 77.2311504,22.2536364 C72.9555867,22.2940536 69.4567515,18.8651653 69.4162832,14.595 C69.3758149,10.3248347 72.8090381,6.8304172 77.0846018,6.79 C81.1115044,6.79 83.4562832,9.25909091 84.0934513,11.8809091 L80.0984071,13.0836364 C79.7919016,11.7347592 78.5638467,10.7974742 77.180177,10.8563636 C75.3260177,10.8563636 73.8286726,12.1736364 73.8286726,14.5218182 Z" id="Shape" fill="#333333"></path>
                    <path d="M89.719646,14.5218182 C89.719646,16.8381818 91.280708,18.13 93.1284956,18.13 C94.5177978,18.1906669 95.7682889,17.2940794 96.1550442,15.96 L100.092743,17.1627273 C99.2451072,20.2747753 96.3549277,22.3875148 93.1284956,22.2536364 C88.8529319,22.2940536 85.3540966,18.8651653 85.3136283,14.595 C85.27316,10.3248347 88.7063832,6.8304172 92.9819469,6.79 C97.0088496,6.79 99.3536283,9.25909091 99.9907965,11.8809091 L95.9957522,13.0836364 C95.6623398,11.7517416 94.4311706,10.8422001 93.0584071,10.9136364 C91.1978761,10.8563636 89.719646,12.1736364 89.719646,14.5218182 Z" id="Shape" fill="#333333"></path>
                    <path d="M115.518584,17.6018182 C114.811327,20.1472727 112.492035,22.2345455 108.790088,22.2345455 C104.763186,22.2345455 101.182301,19.3645455 101.182301,14.4581818 C101.182301,9.76818182 104.673982,6.77090909 108.465133,6.77090909 C112.989027,6.77090909 115.779823,9.55818182 115.779823,14.2545455 C115.78598,14.7164621 115.756156,15.1781575 115.690619,15.6354545 L105.495929,15.6354545 C105.685433,17.302189 107.137976,18.5357096 108.815575,18.4545455 C110.120168,18.5782162 111.337778,17.786846 111.75292,16.5454545 L115.518584,17.6018182 Z M111.459823,12.7654545 C111.402478,11.6518182 110.637876,10.3027273 108.522478,10.3027273 C107.054014,10.2262801 105.780255,11.3059339 105.616991,12.7654545 L111.459823,12.7654545 Z" id="Shape" fill="#333333"></path>
                    <path d="M117.487434,27.4018182 L117.487434,7.21636364 L121.781947,7.21636364 L121.781947,8.71181818 C122.419115,7.77 123.980177,6.86 126.070088,6.86 C130.300885,6.86 132.855929,10.0863636 132.855929,14.4581818 C132.855929,18.83 129.975929,22.0945455 125.891681,22.0945455 C124.012035,22.0945455 122.603894,21.4581818 121.928496,20.6245455 L121.928496,27.4018182 L117.487434,27.4018182 Z M125.184425,10.8563636 C123.451327,10.8563636 121.890265,12.0272727 121.890265,14.4645455 C121.890265,16.9018182 123.451327,18.1045455 125.184425,18.1045455 C126.917522,18.1045455 128.504071,16.9018182 128.504071,14.4645455 C128.504071,12.0272727 126.949381,10.8563636 125.184425,10.8563636 Z" id="Shape" fill="#333333"></path>
                    <path d="M140.521062,2.95909091 L140.521062,7.21636364 L143.369204,7.21636364 L143.369204,11.1172727 L140.521062,11.1172727 L140.521062,16.5836364 C140.521062,17.7927273 141.15823,18.1109091 142.139469,18.1109091 C142.534346,18.1036369 142.927339,18.0545748 143.311858,17.9645455 L143.311858,21.6745455 C142.579801,21.9850561 141.786985,22.1264516 140.992566,22.0881818 C137.966018,22.0881818 136.111858,20.2936364 136.111858,17.3918182 L136.111858,11.1427273 L133.563186,11.1427273 L133.563186,7.24181818 L140.521062,2.95909091 Z" id="Shape" fill="#333333"></path>
                    <rect id="Rectangle-path" fill="#0BF7F7" transform="translate(29.685024, 11.117016) rotate(-135.050000) translate(-29.685024, -11.117016) " x="18.0790066" y="7.75065201" width="23.2120354" height="6.73272727"></rect>
                    <rect id="Rectangle-path" fill="#08F9CB" transform="translate(8.545532, 13.447646) rotate(-45.050000) translate(-8.545532, -13.447646) " x="5.17491263" y="4.87582756" width="6.74123894" height="17.1436364"></rect>
                    <rect id="Rectangle-path" fill="#08F9CB" transform="translate(18.076830, 11.339708) rotate(-45.050000) translate(-18.076830, -11.339708) " x="6.47081226" y="7.97334421" width="23.2120354" height="6.73272727"></rect>
                </g>
            </g>
        </g>
    </g>
</svg>